<svg width="990" height="156" viewBox="0 0 990 156" fill="none" xmlns="http://www.w3.org/2000/svg">
<rect width="989.011" height="155.408" fill="#6278F7"/>
<path d="M966 101C966 120.857 949.46 137 929 137C908.54 137 892 120.857 892 101C892 81.1427 908.54 65 929 65C949.46 65 966 81.1427 966 101Z" stroke="#95FFD4" stroke-width="2"/>
<path d="M670.016 50.708C670.016 68.1451 656.724 82.1759 640.453 82.1759C624.182 82.1759 610.89 68.1451 610.89 50.708C610.89 33.271 624.182 19.2402 640.453 19.2402C656.724 19.2402 670.016 33.271 670.016 50.708Z" stroke="white" stroke-width="2"/>
<path d="M300.554 78.6924L361.083 61.4628L344.864 125.764L300.554 78.6924Z" stroke="#95FFD4" stroke-width="2"/>
<path d="M25.7397 126.318L50.824 80.1628L75.9082 126.318H25.7397Z" stroke="#95FFD4" stroke-width="2"/>
</svg>
