<svg width="990" height="156" viewBox="0 0 990 156" fill="none" xmlns="http://www.w3.org/2000/svg">
<rect width="989.011" height="155.408" fill="#6278F7"/>
<path d="M883 89C883 108.857 866.46 125 846 125C825.54 125 809 108.857 809 89C809 69.1427 825.54 53 846 53C866.46 53 883 69.1427 883 89Z" stroke="#95FFD4" stroke-width="2"/>
<path d="M677.126 45.4678C677.126 62.9048 663.834 76.9356 647.563 76.9356C631.292 76.9356 618 62.9048 618 45.4678C618 28.0308 631.292 14 647.563 14C663.834 14 677.126 28.0308 677.126 45.4678Z" stroke="white" stroke-width="2"/>
<path d="M232.961 47.3191L293.49 30.0896L277.271 94.391L232.961 47.3191Z" stroke="#95FFD4" stroke-width="2"/>
<path d="M25.7397 60.3175L50.824 14.1628L75.9082 60.3175H25.7397Z" stroke="#95FFD4" stroke-width="2"/>
</svg>
