<svg width="532" height="412" viewBox="0 0 532 412" fill="none" xmlns="http://www.w3.org/2000/svg">
<g clip-path="url(#clip0_58505_1264)">
<path d="M23.5933 399.953C40.1757 411.899 61.6653 412.499 82.4372 411.031C85.3378 410.826 88.2178 410.586 91.0711 410.327C91.0883 410.323 91.111 410.324 91.1285 410.32C91.2656 410.307 91.403 410.294 91.5342 410.286C92.1232 410.231 92.7124 410.176 93.2958 410.12L93.158 410.383L92.7254 411.199C92.8808 410.926 93.0362 410.659 93.1916 410.386C93.2373 410.304 93.2886 410.222 93.3341 410.14C98.7151 400.776 104.052 391.068 105.414 380.375C106.821 369.277 102.866 356.709 93.0981 351.254C91.817 350.541 90.4604 349.973 89.0533 349.56C88.4691 349.383 87.8771 349.239 87.2782 349.111C83.6148 348.298 79.8009 348.475 76.2285 349.624C72.6562 350.773 69.4544 352.853 66.9524 355.65C64.4503 358.447 62.7384 361.86 61.9926 365.537C61.2467 369.215 61.4939 373.025 62.7087 376.576C54.4272 368.084 55.9721 354.308 58.8288 342.794C61.691 331.281 65.156 318.47 59.3345 308.129C56.0984 302.373 50.4075 298.802 44.021 297.363C43.825 297.321 43.6294 297.279 43.4331 297.242C35.8237 295.701 27.913 297.087 21.2809 301.124C9.06933 308.819 2.79729 323.41 0.761651 337.702C-2.51814 360.702 4.74009 386.37 23.5933 399.953Z" fill="#F2F2F2"/>
<path d="M28.9471 363.084C29.4284 368.157 30.6471 373.133 32.5645 377.855C34.3316 382.033 36.7134 385.923 39.631 389.397C45.5909 396.566 53.4716 401.956 62.0302 405.548C68.5743 408.228 75.431 410.071 82.4371 411.031C85.3377 410.827 88.2177 410.586 91.071 410.327C91.0882 410.323 91.1108 410.324 91.1284 410.32C91.2655 410.307 91.4029 410.294 91.5341 410.286C92.123 410.231 92.7122 410.176 93.2956 410.121L93.1578 410.383L92.7253 411.199C92.8807 410.926 93.036 410.659 93.1915 410.386C93.2372 410.304 93.2885 410.222 93.3339 410.14C88.0814 404.907 84.1598 398.491 81.8976 391.43C79.6354 384.369 79.0986 376.869 80.3321 369.557C81.6229 362.298 84.6111 355.446 89.0532 349.561C88.469 349.383 87.8769 349.239 87.2781 349.112C85.5899 351.42 84.1091 353.872 82.8529 356.441C78.3456 365.602 76.9076 375.971 78.7518 386.013C80.4664 395.1 84.7379 403.509 91.0649 410.253C90.5109 410.214 89.9515 410.169 89.4041 410.119C79.0353 409.24 68.6877 407.011 59.2831 402.446C51.2443 398.637 44.2652 392.911 38.9606 385.771C33.2648 377.915 30.755 368.467 30.3239 358.863C29.8667 348.582 31.2007 338.121 33.547 328.122C35.9429 317.872 39.584 307.954 44.3892 298.588C44.4967 298.376 44.5183 298.13 44.4498 297.902C44.3812 297.674 44.2277 297.481 44.0209 297.364C43.8485 297.247 43.6372 297.204 43.433 297.243C43.333 297.269 43.2403 297.318 43.1618 297.385C43.0833 297.452 43.021 297.536 42.9795 297.631C42.3867 298.788 41.8049 299.946 41.2453 301.116C36.5844 310.867 33.153 321.16 31.0298 331.757C28.9686 341.98 27.8685 352.674 28.9471 363.084Z" fill="white"/>
<path d="M521.331 353.958H247.076C244.248 353.955 241.536 352.83 239.536 350.83C237.535 348.83 236.41 346.118 236.407 343.29V10.669C236.41 7.84035 237.535 5.12851 239.536 3.12838C241.536 1.12825 244.248 0.00318429 247.076 0H521.331C524.16 0.00318429 526.872 1.12825 528.872 3.12838C530.872 5.12851 531.997 7.84035 532 10.669V343.29C531.997 346.118 530.872 348.83 528.872 350.83C526.872 352.83 524.16 353.955 521.331 353.958ZM247.076 1.25517C244.58 1.258 242.188 2.25071 240.423 4.01552C238.658 5.78034 237.665 8.17314 237.662 10.669V343.29C237.665 345.785 238.658 348.178 240.423 349.943C242.188 351.708 244.58 352.7 247.076 352.703H521.331C523.827 352.7 526.22 351.708 527.985 349.943C529.749 348.178 530.742 345.785 530.745 343.29V10.669C530.742 8.17314 529.749 5.78034 527.985 4.01552C526.22 2.25071 523.827 1.258 521.331 1.25517H247.076Z" fill="white"/>
<path d="M531.372 26.1016H237.035V27.3567H531.372V26.1016Z" fill="#212121"/>
<path d="M251.469 18.8275C254.242 18.8275 256.49 16.5797 256.49 13.8068C256.49 11.034 254.242 8.78613 251.469 8.78613C248.697 8.78613 246.449 11.034 246.449 13.8068C246.449 16.5797 248.697 18.8275 251.469 18.8275Z" fill="#3F3D56"/>
<path d="M267.159 18.8275C269.932 18.8275 272.18 16.5797 272.18 13.8068C272.18 11.034 269.932 8.78613 267.159 8.78613C264.386 8.78613 262.138 11.034 262.138 13.8068C262.138 16.5797 264.386 18.8275 267.159 18.8275Z" fill="#3F3D56"/>
<path d="M282.848 18.8275C285.621 18.8275 287.869 16.5797 287.869 13.8068C287.869 11.034 285.621 8.78613 282.848 8.78613C280.075 8.78613 277.828 11.034 277.828 13.8068C277.828 16.5797 280.075 18.8275 282.848 18.8275Z" fill="#3F3D56"/>
<path d="M478.818 75.9378H283.012C280.848 75.9378 278.773 75.0783 277.243 73.5482C275.713 72.0182 274.853 69.943 274.853 67.7792C274.853 65.6154 275.713 63.5403 277.243 62.0102C278.773 60.4802 280.848 59.6206 283.012 59.6206H478.818C480.982 59.6206 483.057 60.4802 484.587 62.0102C486.117 63.5403 486.977 65.6154 486.977 67.7792C486.977 69.943 486.117 72.0182 484.587 73.5482C483.057 75.0783 480.982 75.9378 478.818 75.9378ZM283.012 60.8758C281.181 60.8758 279.425 61.6031 278.13 62.8978C276.836 64.1924 276.108 65.9483 276.108 67.7792C276.108 69.6101 276.836 71.366 278.13 72.6607C279.425 73.9553 281.181 74.6827 283.012 74.6827H478.818C480.649 74.6827 482.405 73.9553 483.7 72.6607C484.995 71.366 485.722 69.6101 485.722 67.7792C485.722 65.9483 484.995 64.1924 483.7 62.8978C482.405 61.6031 480.649 60.8758 478.818 60.8758H283.012Z" fill="#212121"/>
<path d="M356.276 190.786H279.083C276.254 190.783 273.543 189.658 271.542 187.658C269.542 185.658 268.417 182.946 268.414 180.117V116.731C268.417 113.902 269.542 111.191 271.542 109.19C273.543 107.19 276.254 106.065 279.083 106.062H356.276C359.105 106.065 361.816 107.19 363.817 109.19C365.817 111.191 366.942 113.902 366.945 116.731V180.117C366.942 182.946 365.817 185.658 363.817 187.658C361.816 189.658 359.105 190.783 356.276 190.786ZM279.083 107.317C276.587 107.32 274.194 108.313 272.43 110.078C270.665 111.842 269.672 114.235 269.669 116.731V180.117C269.672 182.613 270.665 185.006 272.43 186.771C274.194 188.535 276.587 189.528 279.083 189.531H356.276C358.772 189.528 361.165 188.535 362.929 186.771C364.694 185.006 365.687 182.613 365.69 180.117V116.731C365.687 114.235 364.694 111.842 362.929 110.078C361.165 108.313 358.772 107.32 356.276 107.317H279.083Z" fill="white"/>
<path d="M489.324 109.2H412.131C406.586 109.2 402.09 113.696 402.09 119.241V182.628C402.09 188.173 406.586 192.669 412.131 192.669H489.324C494.87 192.669 499.366 188.173 499.366 182.628V119.241C499.366 113.696 494.87 109.2 489.324 109.2Z" fill="#8FBFDA"/>
<path d="M356.276 308.772H279.083C276.254 308.769 273.543 307.644 271.542 305.644C269.542 303.644 268.417 300.932 268.414 298.103V234.717C268.417 231.889 269.542 229.177 271.542 227.177C273.543 225.177 276.254 224.052 279.083 224.048H356.276C359.105 224.052 361.816 225.177 363.817 227.177C365.817 229.177 366.942 231.889 366.945 234.717V298.103C366.942 300.932 365.817 303.644 363.817 305.644C361.816 307.644 359.105 308.769 356.276 308.772ZM279.083 225.304C276.587 225.306 274.194 226.299 272.43 228.064C270.665 229.829 269.672 232.221 269.669 234.717V298.103C269.672 300.599 270.665 302.992 272.43 304.757C274.194 306.522 276.587 307.514 279.083 307.517H356.276C358.772 307.514 361.165 306.522 362.929 304.757C364.694 302.992 365.687 300.599 365.69 298.103V234.717C365.687 232.221 364.694 229.829 362.929 228.064C361.165 226.299 358.772 225.306 356.276 225.304H279.083Z" fill="white"/>
<path d="M489.324 227.186H412.131C406.586 227.186 402.09 231.682 402.09 237.227V300.614C402.09 306.159 406.586 310.655 412.131 310.655H489.324C494.87 310.655 499.366 306.159 499.366 300.614V237.227C499.366 231.682 494.87 227.186 489.324 227.186Z" fill="#8FBFDA"/>
<path d="M298.47 175.456C298.456 175.456 298.442 175.456 298.428 175.455L289.648 175.13C289.374 175.122 289.113 175.015 288.912 174.829C288.711 174.642 288.584 174.39 288.554 174.118C287.95 168.726 285.463 141.25 295.882 129.831C297.356 128.182 299.179 126.882 301.219 126.025C303.258 125.168 305.463 124.776 307.672 124.878C307.762 124.883 307.852 124.864 307.932 124.823C308.011 124.781 308.078 124.719 308.125 124.642L310.251 121.301C310.367 121.121 310.532 120.976 310.726 120.884C310.92 120.791 311.137 120.755 311.351 120.78C313.055 120.986 321.741 121.958 325.394 120.9C325.609 120.837 325.838 120.838 326.053 120.904C326.268 120.97 326.458 121.098 326.601 121.272L329.392 124.683C329.44 124.745 329.502 124.794 329.573 124.827C329.644 124.86 329.721 124.875 329.799 124.872C331.219 124.843 336.197 125.118 340.553 129.991C345.27 135.267 350.139 147.172 346.542 173.919C346.505 174.194 346.369 174.446 346.161 174.629C345.952 174.812 345.684 174.913 345.407 174.914H338.492C338.217 174.913 337.952 174.813 337.745 174.634C337.537 174.454 337.401 174.206 337.36 173.934L335.101 158.348C335.083 158.22 335.017 158.103 334.916 158.021C334.816 157.94 334.688 157.899 334.559 157.907C334.43 157.915 334.308 157.971 334.219 158.064C334.129 158.158 334.078 158.281 334.075 158.411L333.919 165.729C333.914 165.946 333.848 166.157 333.727 166.338C333.607 166.519 333.438 166.662 333.24 166.75C330.774 167.834 317.749 172.917 303.353 166.55C303.158 166.463 302.991 166.323 302.871 166.147C302.751 165.97 302.683 165.764 302.673 165.55L302.39 158.901C302.384 158.771 302.33 158.648 302.238 158.557C302.146 158.465 302.022 158.412 301.892 158.408C301.763 158.403 301.636 158.448 301.537 158.532C301.439 158.617 301.376 158.736 301.362 158.865L299.607 174.44C299.574 174.719 299.44 174.977 299.231 175.164C299.022 175.351 298.751 175.455 298.47 175.456Z" fill="#F2F2F2"/>
<path d="M334.791 290.283H334.785L300.38 290.065C300.13 290.063 299.889 289.97 299.702 289.803C299.516 289.637 299.397 289.408 299.367 289.159L295.906 259.742C295.885 259.552 295.796 259.377 295.656 259.247C295.515 259.118 295.333 259.043 295.142 259.038C292.411 258.949 285.912 258.326 284.566 254.48C283.366 251.054 286.647 246.001 294.315 239.461C294.446 239.349 294.602 239.272 294.77 239.237C294.938 239.201 295.112 239.208 295.277 239.257C295.441 239.306 295.591 239.395 295.712 239.517C295.833 239.639 295.922 239.789 295.97 239.954L299.951 253.689C299.999 253.853 300.099 253.998 300.236 254.102C300.373 254.206 300.54 254.263 300.712 254.265L333.333 254.484C333.504 254.485 333.671 254.432 333.809 254.331C333.947 254.231 334.049 254.088 334.1 253.925L338.529 239.83C338.579 239.673 338.665 239.53 338.781 239.413C338.898 239.296 339.041 239.209 339.198 239.159C339.355 239.11 339.522 239.098 339.684 239.127C339.846 239.155 339.999 239.222 340.13 239.322C343.153 241.63 352.89 249.556 351.288 254.625C350.448 257.28 346.662 258.76 340.035 259.023C339.845 259.03 339.663 259.105 339.523 259.234C339.383 259.363 339.295 259.538 339.273 259.728L335.811 289.376C335.782 289.626 335.662 289.856 335.474 290.024C335.286 290.191 335.043 290.283 334.791 290.283Z" fill="#F2F2F2"/>
<path d="M485.559 166.407C474.747 168.488 464.552 173.003 455.745 179.61C455.299 178.425 454.46 177.428 453.368 176.787C452.622 176.324 451.808 175.982 450.955 175.773C450.18 175.576 449.435 176.047 448.75 176.726C447.963 177.597 447.303 178.575 446.789 179.631C434.974 171.521 417.051 166.346 417.051 166.346V164.724C417.066 164.342 417.105 163.961 417.168 163.583C417.229 163.148 417.305 162.762 417.401 162.291C418.922 154.556 424.933 136.882 424.933 136.882H431.73L444.908 139.619L459.734 138.712L474.666 135.605L476.602 135.199C479.831 137.734 483.496 155.474 484.935 163.026C485.118 163.984 485.26 164.775 485.366 165.357C485.493 166.016 485.559 166.407 485.559 166.407Z" fill="white"/>
<path d="M445.002 244.268C445.002 244.268 441.844 245.057 436.948 258.319C432.052 271.581 430.317 288.715 430.317 288.715C430.317 288.715 427.564 293.378 439.316 293.69C439.316 293.69 438.371 296.769 445.002 296.296C451.632 295.824 450.678 295.828 450.678 295.828C450.678 295.828 454.941 293.144 456.836 293.616C458.731 294.089 459.915 294.25 461.966 295.984C464.018 297.719 470.575 297.012 470.653 295.672C470.706 295.014 470.706 294.353 470.653 293.694C470.653 293.694 480.68 294.328 478.784 287.063C476.889 279.799 475.311 267.878 475.311 267.878C475.311 267.878 470.18 244.589 464.334 244.273C458.488 243.956 445.002 244.268 445.002 244.268Z" fill="white"/>
<path d="M120.898 221.912C131.297 221.912 139.726 213.482 139.726 203.084C139.726 192.686 131.297 184.257 120.898 184.257C110.5 184.257 102.071 192.686 102.071 203.084C102.071 213.482 110.5 221.912 120.898 221.912Z" fill="#2F2E41"/>
<path d="M122.48 221.948C130.993 221.948 137.894 215.047 137.894 206.534C137.894 198.021 130.993 191.119 122.48 191.119C113.967 191.119 107.065 198.021 107.065 206.534C107.065 215.047 113.967 221.948 122.48 221.948Z" fill="#FFB8B8"/>
<path d="M181.183 253.417C180.938 253.664 180.713 253.929 180.51 254.211L149.406 253.112L145.848 246.44L135.077 250.493L140.227 262.916C140.643 263.92 141.374 264.761 142.309 265.315C143.244 265.868 144.333 266.103 145.413 265.984L180.611 262.119C181.429 263.178 182.55 263.963 183.824 264.369C185.099 264.775 186.467 264.784 187.747 264.394C189.026 264.003 190.157 263.233 190.988 262.184C191.819 261.136 192.311 259.859 192.398 258.524C192.486 257.189 192.165 255.859 191.479 254.711C190.792 253.563 189.772 252.651 188.555 252.097C187.337 251.542 185.98 251.372 184.663 251.608C183.346 251.844 182.132 252.475 181.183 253.417Z" fill="#FFB8B8"/>
<path d="M130.934 256.492C130.537 256.314 130.184 256.053 129.898 255.726C129.612 255.399 129.399 255.014 129.275 254.598L124.943 240.057C124.002 238.044 123.898 235.739 124.654 233.649C125.41 231.559 126.964 229.854 128.975 228.907C130.986 227.961 133.29 227.851 135.382 228.601C137.474 229.351 139.184 230.9 140.136 232.908L148.528 245.607C148.767 245.97 148.926 246.38 148.993 246.809C149.06 247.238 149.033 247.677 148.915 248.095C148.797 248.513 148.591 248.901 148.309 249.232C148.028 249.563 147.679 249.829 147.285 250.013L133.451 256.473C133.058 256.657 132.629 256.754 132.195 256.757C131.76 256.76 131.33 256.67 130.934 256.492Z" fill="#CCCCCC"/>
<path d="M161.569 404.12L168.327 400.441L157.354 372.625L147.38 378.054L161.569 404.12Z" fill="#FFB8B8"/>
<path d="M158.645 402.851L171.953 395.607C173.067 395.001 174.29 394.619 175.551 394.485C176.812 394.351 178.087 394.467 179.303 394.826C180.519 395.185 181.653 395.78 182.639 396.577C183.626 397.374 184.445 398.357 185.052 399.471L185.202 399.747L163.412 411.608L158.645 402.851Z" fill="#2F2E41"/>
<path d="M87.2084 404.15H94.902L98.5627 374.472L87.2065 374.473L87.2084 404.15Z" fill="#FFB8B8"/>
<path d="M85.2456 401.638L100.398 401.637C101.666 401.637 102.922 401.887 104.094 402.372C105.265 402.857 106.33 403.569 107.227 404.465C108.123 405.362 108.835 406.427 109.32 407.598C109.805 408.77 110.055 410.025 110.055 411.293V411.607L85.246 411.608L85.2456 401.638Z" fill="#2F2E41"/>
<path d="M135.019 272.432L137.53 302.557L165.531 386.562C165.642 386.893 165.682 387.243 165.649 387.589C165.617 387.936 165.513 388.272 165.344 388.577C165.174 388.881 164.944 389.147 164.666 389.357C164.389 389.567 164.07 389.718 163.731 389.798L155.149 391.842C154.6 391.973 154.022 391.914 153.51 391.676C152.997 391.438 152.58 391.034 152.326 390.53L116.526 319.517C116.409 319.285 116.224 319.096 115.995 318.974C115.766 318.852 115.505 318.804 115.248 318.836C114.991 318.869 114.75 318.98 114.559 319.155C114.367 319.33 114.235 319.559 114.179 319.813L98.4245 391.584C98.3018 392.143 97.9918 392.644 97.5459 393.002C97.0999 393.361 96.5448 393.556 95.9725 393.556H87.9885C87.656 393.557 87.3267 393.491 87.0198 393.363C86.713 393.235 86.4347 393.047 86.2013 392.81C85.9678 392.573 85.7838 392.292 85.6601 391.983C85.5363 391.675 85.4752 391.345 85.4803 391.012C86.2119 341.247 83.7984 284.54 103.012 275.57L106.15 267.412L135.019 272.432Z" fill="#2F2E41"/>
<path d="M105.247 269.548L102.011 249.982C101.475 246.773 101.756 243.481 102.828 240.409C103.899 237.338 105.727 234.585 108.142 232.405C110.502 230.247 113.368 228.717 116.476 227.958C119.583 227.198 122.832 227.233 125.922 228.06C126.105 228.109 126.289 228.159 126.473 228.211C130.275 229.3 133.652 231.529 136.146 234.598C138.641 237.667 140.134 241.428 140.422 245.373C141.04 253.87 140.487 266.198 134.349 276.671L134.229 276.874L105.247 269.548Z" fill="#CCCCCC"/>
<path d="M137.813 198.341C134.291 200.769 130.11 202.061 125.832 202.044C127.358 203.102 129.096 203.817 130.924 204.139C125.237 205.359 119.358 205.392 113.657 204.236C112.39 204.032 111.167 203.613 110.042 202.994C109.482 202.681 108.994 202.254 108.609 201.74C108.225 201.226 107.953 200.636 107.811 200.01C107.432 197.846 109.119 195.88 110.871 194.555C113.554 192.557 116.648 191.18 119.929 190.525C123.209 189.869 126.595 189.951 129.84 190.764C131.959 191.312 134.081 192.237 135.457 193.939C136.834 195.64 137.241 198.264 135.93 200.016L137.813 198.341Z" fill="#2F2E41"/>
<path d="M120.65 184.164C122.437 176.949 116.033 168.934 108.602 169.084C101.063 169.236 95.5144 176.049 91.7006 182.554C87.8867 189.06 84.0964 196.434 77.0948 199.235C74.7779 200.162 72.2672 200.499 69.7878 200.217C67.3084 199.935 64.9378 199.042 62.8885 197.618C60.8393 196.194 59.1755 194.283 58.0462 192.058C56.917 189.833 56.3577 187.362 56.4184 184.867C55.4783 192.771 56.7807 201.322 61.8776 207.435C66.9745 213.548 76.4585 216.303 83.2753 212.195C87.1686 209.848 89.6571 205.77 91.7087 201.714C93.7603 197.657 95.5859 193.38 98.6945 190.063C101.803 186.747 106.61 184.546 110.936 185.941C112.653 186.495 114.194 187.575 115.968 187.903C117.742 188.232 119.976 187.388 120.218 185.6L120.65 184.164Z" fill="#2F2E41"/>
<path d="M83.4995 314.98C82.8598 314.23 82.3922 313.349 82.1297 312.399C81.8672 311.449 81.8162 310.453 81.9803 309.481C82.1444 308.509 82.5196 307.585 83.0795 306.774C83.6394 305.963 84.3703 305.284 85.2207 304.786L98.5917 244.853L112.155 250.42L94.7471 307.582C95.4893 309.066 95.6612 310.771 95.2303 312.373C94.7994 313.976 93.7956 315.364 92.4092 316.276C91.0228 317.188 89.3501 317.56 87.708 317.321C86.0659 317.082 84.5685 316.249 83.4995 314.98Z" fill="#FFB8B8"/>
<path d="M93.2939 253.451C93.0803 253.073 92.9509 252.653 92.9145 252.22C92.878 251.787 92.9354 251.351 93.0827 250.943L98.2243 236.668C98.662 234.489 99.9459 232.572 101.795 231.338C103.643 230.104 105.906 229.654 108.086 230.086C110.267 230.517 112.187 231.796 113.426 233.641C114.665 235.487 115.121 237.748 114.695 239.93L113.914 255.131C113.892 255.565 113.776 255.989 113.575 256.374C113.375 256.759 113.093 257.097 112.75 257.363C112.407 257.63 112.01 257.819 111.588 257.919C111.165 258.018 110.725 258.025 110.299 257.94L95.3312 254.93C94.9052 254.845 94.5027 254.668 94.151 254.413C93.7994 254.158 93.5071 253.83 93.2939 253.451Z" fill="#CCCCCC"/>
<path d="M202.845 246.73L202.623 246.699L203.461 240.597C203.59 239.66 203.341 238.711 202.77 237.958C202.199 237.204 201.352 236.709 200.415 236.58L187.487 234.803C186.55 234.674 185.601 234.923 184.848 235.494C184.094 236.065 183.599 236.912 183.47 237.849L178.868 271.325C178.739 272.261 178.988 273.211 179.559 273.964C180.131 274.718 180.978 275.213 181.914 275.342L194.842 277.119C195.779 277.248 196.729 276.999 197.482 276.428C198.235 275.857 198.731 275.009 198.86 274.073L202.025 251.042L202.248 251.073L202.845 246.73Z" fill="#3F3D56"/>
<path d="M200.008 238.37L198.399 238.149C198.448 238.34 198.449 238.541 198.402 238.733C198.355 238.926 198.262 239.103 198.13 239.251C197.999 239.399 197.833 239.512 197.647 239.58C197.461 239.648 197.262 239.67 197.066 239.643L190.001 238.672C189.805 238.645 189.619 238.57 189.459 238.454C189.298 238.338 189.169 238.185 189.082 238.007C188.995 237.829 188.953 237.633 188.96 237.435C188.967 237.238 189.022 237.045 189.121 236.873L187.618 236.667C187.287 236.621 186.951 236.641 186.629 236.726C186.306 236.81 186.003 236.958 185.738 237.159C185.472 237.361 185.248 237.612 185.08 237.9C184.912 238.188 184.802 238.506 184.756 238.837L180.373 270.721C180.328 271.051 180.348 271.387 180.432 271.71C180.517 272.032 180.664 272.335 180.866 272.601C181.067 272.867 181.319 273.09 181.607 273.258C181.895 273.427 182.213 273.537 182.543 273.582L194.934 275.285C195.601 275.377 196.277 275.2 196.814 274.793C197.351 274.386 197.704 273.783 197.795 273.116L202.178 241.231C202.27 240.564 202.093 239.888 201.686 239.351C201.279 238.815 200.676 238.462 200.008 238.37Z" fill="white"/>
<path d="M191.221 264.841C195.033 264.841 198.124 261.751 198.124 257.938C198.124 254.125 195.033 251.034 191.221 251.034C187.408 251.034 184.317 254.125 184.317 257.938C184.317 261.751 187.408 264.841 191.221 264.841Z" fill="#6C63FF"/>
<path d="M190.536 260.571C190.381 260.572 190.23 260.521 190.106 260.428L190.098 260.423L188.476 259.18C188.4 259.123 188.337 259.051 188.289 258.969C188.241 258.887 188.21 258.797 188.198 258.703C188.185 258.609 188.191 258.513 188.216 258.421C188.24 258.33 188.282 258.244 188.34 258.168C188.398 258.093 188.47 258.03 188.552 257.983C188.634 257.935 188.725 257.905 188.819 257.892C188.913 257.88 189.008 257.886 189.1 257.911C189.191 257.936 189.277 257.978 189.352 258.036L190.403 258.842L192.886 255.603C192.944 255.528 193.016 255.465 193.098 255.418C193.18 255.37 193.27 255.34 193.364 255.327C193.458 255.315 193.553 255.321 193.645 255.346C193.736 255.37 193.822 255.412 193.897 255.47C194.048 255.586 194.148 255.758 194.173 255.948C194.198 256.137 194.147 256.329 194.031 256.481L191.11 260.29C191.042 260.378 190.955 260.449 190.856 260.498C190.757 260.546 190.647 260.572 190.536 260.571Z" fill="white"/>
<path d="M254.847 411.697H15.7365C15.57 411.697 15.4104 411.63 15.2927 411.513C15.175 411.395 15.1089 411.235 15.1089 411.069C15.1089 410.903 15.175 410.743 15.2927 410.625C15.4104 410.508 15.57 410.441 15.7365 410.441H254.847C255.013 410.441 255.173 410.508 255.29 410.625C255.408 410.743 255.474 410.903 255.474 411.069C255.474 411.235 255.408 411.395 255.29 411.513C255.173 411.63 255.013 411.697 254.847 411.697Z" fill="#3F3D56"/>
</g>
<defs>
<clipPath id="clip0_58505_1264">
<rect width="532" height="411.696" fill="white"/>
</clipPath>
</defs>
</svg>
